<svg xmlns="http://www.w3.org/2000/svg" viewBox="0 0 21 13" shape-rendering="crispEdges"><rect x="14" y="0" width="1" height="1" fill="#6b3a1f"/><rect x="15" y="0" width="6" height="1" fill="#c4613c"/><rect x="3" y="1" width="11" height="1" fill="#d4785c"/><rect x="14" y="1" width="1" height="1" fill="#6b3a1f"/><rect x="15" y="1" width="5" height="1" fill="#faf9f5"/><rect x="20" y="1" width="1" height="1" fill="#c4613c"/><rect x="3" y="2" width="11" height="1" fill="#d4785c"/><rect x="14" y="2" width="1" height="1" fill="#6b3a1f"/><rect x="15" y="2" width="1" height="1" fill="#faf9f5"/><rect x="16" y="2" width="4" height="1" fill="#9a9a98"/><rect x="20" y="2" width="1" height="1" fill="#c4613c"/><rect x="3" y="3" width="2" height="1" fill="#d4785c"/><rect x="5" y="3" width="1" height="1" fill="#111"/><rect x="6" y="3" width="6" height="1" fill="#d4785c"/><rect x="12" y="3" width="1" height="1" fill="#111"/><rect x="13" y="3" width="1" height="1" fill="#d4785c"/><rect x="14" y="3" width="1" height="1" fill="#6b3a1f"/><rect x="15" y="3" width="5" height="1" fill="#faf9f5"/><rect x="20" y="3" width="1" height="1" fill="#c4613c"/><rect x="3" y="4" width="1" height="1" fill="#d4785c"/><rect x="4" y="4" width="1" height="1" fill="#111"/><rect x="5" y="4" width="1" height="1" fill="#d4785c"/><rect x="6" y="4" width="1" height="1" fill="#111"/><rect x="7" y="4" width="4" height="1" fill="#d4785c"/><rect x="11" y="4" width="1" height="1" fill="#111"/><rect x="12" y="4" width="1" height="1" fill="#d4785c"/><rect x="13" y="4" width="1" height="1" fill="#111"/><rect x="14" y="4" width="1" height="1" fill="#6b3a1f"/><rect x="15" y="4" width="1" height="1" fill="#faf9f5"/><rect x="16" y="4" width="4" height="1" fill="#9a9a98"/><rect x="20" y="4" width="1" height="1" fill="#c4613c"/><rect x="1" y="5" width="13" height="1" fill="#d4785c"/><rect x="14" y="5" width="1" height="1" fill="#6b3a1f"/><rect x="15" y="5" width="5" height="1" fill="#faf9f5"/><rect x="20" y="5" width="1" height="1" fill="#c4613c"/><rect x="1" y="6" width="13" height="1" fill="#d4785c"/><rect x="14" y="6" width="1" height="1" fill="#6b3a1f"/><rect x="15" y="6" width="1" height="1" fill="#faf9f5"/><rect x="16" y="6" width="4" height="1" fill="#9a9a98"/><rect x="20" y="6" width="1" height="1" fill="#c4613c"/><rect x="3" y="7" width="11" height="1" fill="#d4785c"/><rect x="14" y="7" width="1" height="1" fill="#6b3a1f"/><rect x="15" y="7" width="5" height="1" fill="#faf9f5"/><rect x="20" y="7" width="1" height="1" fill="#c4613c"/><rect x="3" y="8" width="11" height="1" fill="#d4785c"/><rect x="14" y="8" width="1" height="1" fill="#6b3a1f"/><rect x="15" y="8" width="6" height="1" fill="#c4613c"/><rect x="4" y="9" width="1" height="1" fill="#d4785c"/><rect x="6" y="9" width="1" height="1" fill="#d4785c"/><rect x="11" y="9" width="1" height="1" fill="#d4785c"/><rect x="13" y="9" width="1" height="1" fill="#d4785c"/><rect x="4" y="10" width="1" height="1" fill="#d4785c"/><rect x="6" y="10" width="1" height="1" fill="#d4785c"/><rect x="11" y="10" width="1" height="1" fill="#d4785c"/><rect x="13" y="10" width="1" height="1" fill="#d4785c"/></svg>
